<svg xmlns="http://www.w3.org/2000/svg" viewBox="0 0 512 512">
  <defs>
    <linearGradient id="grad1" x1="0%" y1="0%" x2="100%" y2="100%">
      <stop offset="0%" style="stop-color:#4F46E5;stop-opacity:1" />
      <stop offset="100%" style="stop-color:#7C3AED;stop-opacity:1" />
    </linearGradient>
  </defs>
  <rect width="512" height="512" rx="128" fill="url(#grad1)" />
  <path d="M336 208h-24v-40c0-44.18-35.82-80-80-80s-80 35.82-80 80v40h-24c-17.67 0-32 14.33-32 32v160c0 17.67 14.33 32 32 32h208c17.67 0 32-14.33 32-32V240c0-17.67-14.33-32-32-32zm-88 128c-17.67 0-32-14.33-32-32s14.33-32 32-32 32 14.33 32 32-14.33 32-32 32zm48-128H192v-40c0-22.06 17.94-40 40-40s40 17.94 40 40v40z" fill="white"/>
</svg>
